<svg width="199" height="35" viewBox="0 0 199 35" fill="none" xmlns="http://www.w3.org/2000/svg">
<path d="M129.283 0.0389691V31.0836H125.559V0.0389691H129.283Z" fill="#5B00B7"/>
<path d="M39.7786 22.3076V31.7464H38.6356V22.3076H39.7786ZM43.0105 27.4879V31.7464H41.9228V24.6673H42.9736V25.7734H43.0658C43.2317 25.4139 43.4837 25.1251 43.8217 24.907C44.1596 24.6858 44.5959 24.5751 45.1305 24.5751C45.6098 24.5751 46.0292 24.6735 46.3887 24.8701C46.7482 25.0637 47.0278 25.3586 47.2275 25.755C47.4272 26.1483 47.5271 26.646 47.5271 27.2482V31.7464H46.4394V27.322C46.4394 26.7658 46.295 26.3326 46.0062 26.0223C45.7174 25.7089 45.321 25.5522 44.8171 25.5522C44.47 25.5522 44.1596 25.6275 43.8862 25.778C43.6158 25.9286 43.4023 26.1483 43.2456 26.4371C43.0889 26.7259 43.0105 27.0762 43.0105 27.4879ZM52.3905 31.8938C51.7268 31.8938 51.1553 31.7372 50.676 31.4238C50.1967 31.1104 49.828 30.6787 49.5699 30.1287C49.3118 29.5787 49.1828 28.9504 49.1828 28.2437C49.1828 27.5247 49.3149 26.8903 49.5791 26.3403C49.8465 25.7872 50.2182 25.3556 50.6945 25.0452C51.1738 24.7318 51.733 24.5751 52.372 24.5751C52.8698 24.5751 53.3184 24.6673 53.7178 24.8517C54.1172 25.036 54.4445 25.2941 54.6995 25.6259C54.9545 25.9578 55.1127 26.3449 55.1742 26.7873H54.0865C54.0035 26.4647 53.8192 26.179 53.5335 25.9301C53.2508 25.6782 52.8698 25.5522 52.3905 25.5522C51.9665 25.5522 51.5947 25.6628 51.2752 25.884C50.9587 26.1022 50.7114 26.411 50.5332 26.8104C50.358 27.2067 50.2705 27.6722 50.2705 28.2068C50.2705 28.7537 50.3565 29.23 50.5285 29.6356C50.7037 30.0411 50.9495 30.3561 51.2659 30.5804C51.5855 30.8046 51.9603 30.9168 52.3905 30.9168C52.6732 30.9168 52.9297 30.8676 53.1601 30.7693C53.3906 30.671 53.5857 30.5297 53.7455 30.3453C53.9052 30.161 54.0189 29.9397 54.0865 29.6816H55.1742C55.1127 30.0995 54.9606 30.4759 54.7179 30.8108C54.4783 31.1426 54.1602 31.4069 53.7639 31.6035C53.3706 31.7971 52.9128 31.8938 52.3905 31.8938ZM59.6401 31.8938C59.001 31.8938 58.4402 31.7418 57.9579 31.4376C57.4786 31.1334 57.1037 30.7079 56.8333 30.161C56.566 29.614 56.4324 28.975 56.4324 28.2437C56.4324 27.5063 56.566 26.8626 56.8333 26.3126C57.1037 25.7627 57.4786 25.3356 57.9579 25.0314C58.4402 24.7272 59.001 24.5751 59.6401 24.5751C60.2791 24.5751 60.8383 24.7272 61.3176 25.0314C61.8 25.3356 62.1749 25.7627 62.4422 26.3126C62.7126 26.8626 62.8478 27.5063 62.8478 28.2437C62.8478 28.975 62.7126 29.614 62.4422 30.161C62.1749 30.7079 61.8 31.1334 61.3176 31.4376C60.8383 31.7418 60.2791 31.8938 59.6401 31.8938ZM59.6401 30.9168C60.1255 30.9168 60.5249 30.7924 60.8383 30.5435C61.1517 30.2946 61.3837 29.9674 61.5343 29.5618C61.6848 29.1562 61.7601 28.7169 61.7601 28.2437C61.7601 27.7705 61.6848 27.3296 61.5343 26.921C61.3837 26.5124 61.1517 26.1821 60.8383 25.9301C60.5249 25.6782 60.1255 25.5522 59.6401 25.5522C59.1546 25.5522 58.7552 25.6782 58.4418 25.9301C58.1284 26.1821 57.8964 26.5124 57.7459 26.921C57.5953 27.3296 57.52 27.7705 57.52 28.2437C57.52 28.7169 57.5953 29.1562 57.7459 29.5618C57.8964 29.9674 58.1284 30.2946 58.4418 30.5435C58.7552 30.7924 59.1546 30.9168 59.6401 30.9168ZM64.5081 31.7464V24.6673H65.5589V25.7734H65.651C65.7985 25.3955 66.0366 25.1021 66.3654 24.8931C66.6941 24.6811 67.089 24.5751 67.5498 24.5751C68.0169 24.5751 68.4055 24.6811 68.7159 24.8931C69.0293 25.1021 69.2735 25.3955 69.4486 25.7734H69.5224C69.7037 25.4078 69.9756 25.1174 70.3381 24.9024C70.7007 24.6842 71.1355 24.5751 71.6424 24.5751C72.2754 24.5751 72.7931 24.7733 73.1956 25.1697C73.5981 25.563 73.7993 26.1759 73.7993 27.0086V31.7464H72.7116V27.0086C72.7116 26.4862 72.5688 26.1129 72.283 25.8886C71.9973 25.6643 71.6609 25.5522 71.2737 25.5522C70.776 25.5522 70.3904 25.7028 70.1169 26.0039C69.8435 26.3019 69.7067 26.6798 69.7067 27.1376V31.7464H68.6006V26.898C68.6006 26.4955 68.4701 26.1713 68.2089 25.9255C67.9477 25.6766 67.6113 25.5522 67.1996 25.5522C66.9169 25.5522 66.6527 25.6275 66.4069 25.778C66.1641 25.9286 65.9675 26.1375 65.8169 26.4048C65.6695 26.6691 65.5957 26.9748 65.5957 27.322V31.7464H64.5081ZM78.756 31.8938C78.0739 31.8938 77.4856 31.7433 76.9909 31.4422C76.4993 31.138 76.1198 30.714 75.8525 30.1702C75.5883 29.6233 75.4562 28.9873 75.4562 28.2621C75.4562 27.537 75.5883 26.898 75.8525 26.3449C76.1198 25.7888 76.4916 25.3556 76.9678 25.0452C77.4471 24.7318 78.0063 24.5751 78.6454 24.5751C79.0141 24.5751 79.3782 24.6366 79.7377 24.7595C80.0972 24.8824 80.4244 25.0821 80.7194 25.3586C81.0143 25.6321 81.2494 25.9946 81.4245 26.4463C81.5996 26.898 81.6872 27.4541 81.6872 28.1147V28.5755H76.2304V27.6354H80.5811C80.5811 27.2359 80.5012 26.8795 80.3414 26.5661C80.1847 26.2527 79.9605 26.0054 79.6686 25.8241C79.3798 25.6428 79.0387 25.5522 78.6454 25.5522C78.2122 25.5522 77.8374 25.6597 77.5209 25.8748C77.2075 26.0868 76.9663 26.3633 76.7973 26.7044C76.6283 27.0454 76.5438 27.4111 76.5438 27.8013V28.4281C76.5438 28.9627 76.636 29.4159 76.8204 29.7876C77.0078 30.1563 77.2674 30.4375 77.5992 30.631C77.9311 30.8215 78.3167 30.9168 78.756 30.9168C79.0418 30.9168 79.2999 30.8768 79.5303 30.797C79.7638 30.714 79.9651 30.5911 80.1341 30.4283C80.303 30.2623 80.4336 30.0565 80.5258 29.8107L81.5766 30.1057C81.466 30.4621 81.2801 30.7755 81.0189 31.0458C80.7578 31.3131 80.4352 31.5221 80.0511 31.6726C79.667 31.8201 79.2353 31.8938 78.756 31.8938ZM86.6232 23.3216V22.3076H93.7022V23.3216H90.7342V31.7464H89.5912V23.3216H86.6232ZM96.4387 31.9123C95.9901 31.9123 95.583 31.8278 95.2174 31.6588C94.8517 31.4867 94.5614 31.2394 94.3463 30.9168C94.1312 30.5911 94.0237 30.1978 94.0237 29.737C94.0237 29.3314 94.1036 29.0026 94.2634 28.7507C94.4231 28.4957 94.6367 28.2959 94.904 28.1515C95.1713 28.0071 95.4662 27.8996 95.7889 27.8289C96.1145 27.7552 96.4418 27.6968 96.7705 27.6538C97.2007 27.5985 97.5494 27.557 97.8167 27.5294C98.0871 27.4986 98.2837 27.4479 98.4066 27.3773C98.5326 27.3066 98.5956 27.1837 98.5956 27.0086V26.9717C98.5956 26.517 98.4711 26.1636 98.2223 25.9117C97.9765 25.6597 97.6032 25.5338 97.1023 25.5338C96.5831 25.5338 96.176 25.6474 95.881 25.8748C95.5861 26.1022 95.3787 26.3449 95.2588 26.603L94.2265 26.2343C94.4108 25.8041 94.6566 25.4692 94.9639 25.2296C95.2742 24.9869 95.6122 24.8179 95.9778 24.7226C96.3465 24.6243 96.7091 24.5751 97.0655 24.5751C97.2928 24.5751 97.554 24.6028 97.849 24.6581C98.147 24.7103 98.4343 24.8194 98.7108 24.9853C98.9904 25.1512 99.2224 25.4016 99.4067 25.7365C99.5911 26.0715 99.6833 26.52 99.6833 27.0823V31.7464H98.5956V30.7877H98.5403C98.4665 30.9414 98.3436 31.1058 98.1716 31.2809C97.9995 31.456 97.7706 31.605 97.4849 31.7279C97.1991 31.8508 96.8504 31.9123 96.4387 31.9123ZM96.6046 30.9352C97.0348 30.9352 97.3973 30.8507 97.6923 30.6817C97.9903 30.5128 98.2146 30.2946 98.3651 30.0273C98.5188 29.76 98.5956 29.4789 98.5956 29.1839V28.1884C98.5495 28.2437 98.4481 28.2944 98.2914 28.3405C98.1378 28.3835 97.9596 28.4219 97.7568 28.4557C97.5571 28.4864 97.362 28.5141 97.1715 28.5387C96.9841 28.5602 96.832 28.5786 96.7152 28.594C96.4325 28.6308 96.1683 28.6908 95.9225 28.7737C95.6798 28.8536 95.4831 28.975 95.3326 29.1378C95.1851 29.2976 95.1114 29.5157 95.1114 29.7923C95.1114 30.1702 95.2512 30.4559 95.5308 30.6495C95.8134 30.84 96.1714 30.9352 96.6046 30.9352ZM102.48 24.6673L104.176 27.5616L105.872 24.6673H107.125L104.839 28.2068L107.125 31.7464H105.872L104.176 28.9995L102.48 31.7464H101.226L103.475 28.2068L101.226 24.6673H102.48Z" fill="#5B00B7"/>
<path d="M5.94069 6.27582C5.90382 5.90405 5.74558 5.61523 5.46599 5.40938C5.18639 5.20352 4.80693 5.10059 4.32762 5.10059C4.00194 5.10059 3.72695 5.14668 3.50266 5.23885C3.27836 5.32796 3.1063 5.45239 2.98647 5.61216C2.86972 5.77193 2.81134 5.95321 2.81134 6.156C2.8052 6.32498 2.84053 6.47246 2.91734 6.59844C2.99723 6.72441 3.1063 6.83348 3.24457 6.92566C3.38283 7.01476 3.5426 7.09311 3.72388 7.1607C3.90515 7.22523 4.09872 7.28053 4.30458 7.32662L5.15259 7.5294C5.56431 7.62158 5.94222 7.74448 6.28635 7.89811C6.63047 8.05173 6.9285 8.24069 7.18044 8.46498C7.43239 8.68928 7.62749 8.95351 7.76576 9.25769C7.90709 9.56187 7.9793 9.9106 7.98237 10.3039C7.9793 10.8815 7.83182 11.3823 7.53993 11.8063C7.25111 12.2273 6.83325 12.5545 6.28635 12.788C5.74251 13.0184 5.08653 13.1337 4.31841 13.1337C3.55642 13.1337 2.89276 13.0169 2.32742 12.7834C1.76515 12.5499 1.32579 12.2042 1.00932 11.7464C0.695922 11.2855 0.531543 10.7156 0.516181 10.0366H2.44725C2.46876 10.353 2.5594 10.6173 2.71917 10.8293C2.88201 11.0382 3.09862 11.1964 3.369 11.304C3.64245 11.4084 3.95124 11.4607 4.29536 11.4607C4.63334 11.4607 4.92676 11.4115 5.17563 11.3132C5.42758 11.2149 5.62268 11.0781 5.76095 10.903C5.89921 10.7279 5.96834 10.5266 5.96834 10.2993C5.96834 10.0873 5.90535 9.90906 5.77938 9.76465C5.65648 9.62024 5.4752 9.49734 5.23555 9.39595C4.99897 9.29456 4.70861 9.20238 4.36449 9.11943L3.33674 8.86134C2.54096 8.66777 1.91263 8.36513 1.45176 7.95341C0.990883 7.54169 0.761981 6.98711 0.765054 6.28965C0.761981 5.71816 0.91407 5.21888 1.22132 4.7918C1.53164 4.36472 1.95719 4.03136 2.49795 3.7917C3.03871 3.55205 3.65321 3.43222 4.34145 3.43222C5.04198 3.43222 5.65341 3.55205 6.17574 3.7917C6.70113 4.03136 7.10978 4.36472 7.40166 4.7918C7.69355 5.21888 7.84411 5.71355 7.85332 6.27582H5.94069ZM12.4863 13.1383C11.7704 13.1383 11.1513 12.9862 10.6289 12.682C10.1097 12.3747 9.70873 11.9477 9.42606 11.4008C9.14339 10.8508 9.00206 10.2132 9.00206 9.48813C9.00206 8.75687 9.14339 8.11779 9.42606 7.57088C9.70873 7.02091 10.1097 6.59383 10.6289 6.28965C11.1513 5.9824 11.7704 5.82877 12.4863 5.82877C13.2022 5.82877 13.8197 5.9824 14.339 6.28965C14.8613 6.59383 15.2638 7.02091 15.5465 7.57088C15.8292 8.11779 15.9705 8.75687 15.9705 9.48813C15.9705 10.2132 15.8292 10.8508 15.5465 11.4008C15.2638 11.9477 14.8613 12.3747 14.339 12.682C13.8197 12.9862 13.2022 13.1383 12.4863 13.1383ZM12.4955 11.6174C12.8212 11.6174 13.0931 11.5252 13.3112 11.3408C13.5294 11.1534 13.6938 10.8984 13.8044 10.5758C13.9181 10.2532 13.9749 9.88602 13.9749 9.4743C13.9749 9.06258 13.9181 8.69542 13.8044 8.37281C13.6938 8.05019 13.5294 7.79518 13.3112 7.60775C13.0931 7.42033 12.8212 7.32662 12.4955 7.32662C12.1667 7.32662 11.8902 7.42033 11.6659 7.60775C11.4447 7.79518 11.2772 8.05019 11.1636 8.37281C11.053 8.69542 10.9976 9.06258 10.9976 9.4743C10.9976 9.88602 11.053 10.2532 11.1636 10.5758C11.2772 10.8984 11.4447 11.1534 11.6659 11.3408C11.8902 11.5252 12.1667 11.6174 12.4955 11.6174ZM19.2105 3.56126V13H17.2471V3.56126H19.2105ZM23.9817 13.1383C23.2658 13.1383 22.6467 12.9862 22.1243 12.682C21.6051 12.3747 21.2041 11.9477 20.9215 11.4008C20.6388 10.8508 20.4974 10.2132 20.4974 9.48813C20.4974 8.75687 20.6388 8.11779 20.9215 7.57088C21.2041 7.02091 21.6051 6.59383 22.1243 6.28965C22.6467 5.9824 23.2658 5.82877 23.9817 5.82877C24.6976 5.82877 25.3151 5.9824 25.8344 6.28965C26.3567 6.59383 26.7592 7.02091 27.0419 7.57088C27.3246 8.11779 27.4659 8.75687 27.4659 9.48813C27.4659 10.2132 27.3246 10.8508 27.0419 11.4008C26.7592 11.9477 26.3567 12.3747 25.8344 12.682C25.3151 12.9862 24.6976 13.1383 23.9817 13.1383ZM23.9909 11.6174C24.3166 11.6174 24.5885 11.5252 24.8066 11.3408C25.0248 11.1534 25.1892 10.8984 25.2998 10.5758C25.4135 10.2532 25.4703 9.88602 25.4703 9.4743C25.4703 9.06258 25.4135 8.69542 25.2998 8.37281C25.1892 8.05019 25.0248 7.79518 24.8066 7.60775C24.5885 7.42033 24.3166 7.32662 23.9909 7.32662C23.6621 7.32662 23.3856 7.42033 23.1613 7.60775C22.9401 7.79518 22.7726 8.05019 22.659 8.37281C22.5483 8.69542 22.493 9.06258 22.493 9.4743C22.493 9.88602 22.5483 10.2532 22.659 10.5758C22.7726 10.8984 22.9401 11.1534 23.1613 11.3408C23.3856 11.5252 23.6621 11.6174 23.9909 11.6174ZM28.7425 13V5.92095H30.6137V7.16992H30.6966C30.8441 6.75513 31.0899 6.42791 31.434 6.18826C31.7782 5.9486 32.1899 5.82877 32.6692 5.82877C33.1546 5.82877 33.5679 5.95014 33.9089 6.19286C34.25 6.43252 34.4773 6.75821 34.591 7.16992H34.6648C34.8092 6.76435 35.0703 6.4402 35.4483 6.19747C35.8292 5.95167 36.2794 5.82877 36.7986 5.82877C37.4592 5.82877 37.9954 6.03924 38.4071 6.46017C38.8219 6.87803 39.0293 7.47103 39.0293 8.23915V13H37.0705V8.62629C37.0705 8.23301 36.9661 7.93805 36.7571 7.74141C36.5482 7.54477 36.2871 7.44645 35.9737 7.44645C35.6172 7.44645 35.3392 7.56013 35.1395 7.7875C34.9398 8.01179 34.8399 8.30828 34.8399 8.67699V13H32.9365V8.58481C32.9365 8.23762 32.8366 7.96109 32.6369 7.75523C32.4403 7.54938 32.1807 7.44645 31.858 7.44645C31.6399 7.44645 31.4432 7.50175 31.2681 7.61236C31.0961 7.7199 30.9593 7.87199 30.8579 8.06863C30.7565 8.2622 30.7058 8.48956 30.7058 8.75073V13H28.7425ZM43.7786 13.1383C43.0627 13.1383 42.4436 12.9862 41.9213 12.682C41.402 12.3747 41.001 11.9477 40.7184 11.4008C40.4357 10.8508 40.2944 10.2132 40.2944 9.48813C40.2944 8.75687 40.4357 8.11779 40.7184 7.57088C41.001 7.02091 41.402 6.59383 41.9213 6.28965C42.4436 5.9824 43.0627 5.82877 43.7786 5.82877C44.4945 5.82877 45.1121 5.9824 45.6313 6.28965C46.1536 6.59383 46.5561 7.02091 46.8388 7.57088C47.1215 8.11779 47.2628 8.75687 47.2628 9.48813C47.2628 10.2132 47.1215 10.8508 46.8388 11.4008C46.5561 11.9477 46.1536 12.3747 45.6313 12.682C45.1121 12.9862 44.4945 13.1383 43.7786 13.1383ZM43.7878 11.6174C44.1135 11.6174 44.3854 11.5252 44.6036 11.3408C44.8217 11.1534 44.9861 10.8984 45.0967 10.5758C45.2104 10.2532 45.2672 9.88602 45.2672 9.4743C45.2672 9.06258 45.2104 8.69542 45.0967 8.37281C44.9861 8.05019 44.8217 7.79518 44.6036 7.60775C44.3854 7.42033 44.1135 7.32662 43.7878 7.32662C43.459 7.32662 43.1825 7.42033 42.9582 7.60775C42.737 7.79518 42.5696 8.05019 42.4559 8.37281C42.3453 8.69542 42.29 9.06258 42.29 9.4743C42.29 9.88602 42.3453 10.2532 42.4559 10.5758C42.5696 10.8984 42.737 11.1534 42.9582 11.3408C43.1825 11.5252 43.459 11.6174 43.7878 11.6174ZM50.5028 8.90742V13H48.5394V5.92095H50.4106V7.16992H50.4935C50.6502 6.75821 50.9129 6.43252 51.2816 6.19286C51.6503 5.95014 52.0974 5.82877 52.6228 5.82877C53.1144 5.82877 53.543 5.93631 53.9086 6.15139C54.2743 6.36646 54.5585 6.67371 54.7613 7.07314C54.964 7.46949 55.0654 7.94266 55.0654 8.49263V13H53.1021V8.8429C53.1052 8.40968 52.9946 8.0717 52.7703 7.82897C52.546 7.58317 52.2372 7.46027 51.8439 7.46027C51.5797 7.46027 51.3462 7.51711 51.1434 7.6308C50.9437 7.74448 50.787 7.9104 50.6733 8.12854C50.5627 8.34362 50.5058 8.60325 50.5028 8.90742ZM61.649 3.56126V13H59.6535V3.56126H61.649ZM69.144 7.93958L67.3466 8.05019C67.3159 7.89657 67.2498 7.75831 67.1484 7.63541C67.0471 7.50943 66.9134 7.40958 66.7475 7.33584C66.5846 7.25902 66.3895 7.22062 66.1622 7.22062C65.858 7.22062 65.6014 7.28514 65.3925 7.41419C65.1836 7.54016 65.0791 7.70915 65.0791 7.92115C65.0791 8.09014 65.1467 8.23301 65.2819 8.34976C65.4171 8.46652 65.6491 8.56023 65.9778 8.6309L67.2591 8.88899C67.9473 9.03032 68.4604 9.25769 68.7984 9.57108C69.1364 9.88448 69.3053 10.2962 69.3053 10.8062C69.3053 11.2702 69.1686 11.6773 68.8952 12.0276C68.6248 12.3778 68.253 12.6513 67.7798 12.8479C67.3097 13.0415 66.7675 13.1383 66.153 13.1383C65.2158 13.1383 64.4692 12.9432 63.9131 12.553C63.36 12.1597 63.0359 11.6251 62.9406 10.9491L64.8717 10.8477C64.9301 11.1335 65.0714 11.3516 65.2957 11.5022C65.52 11.6496 65.8073 11.7234 66.1576 11.7234C66.5017 11.7234 66.7782 11.6573 66.9871 11.5252C67.1991 11.39 67.3067 11.2164 67.3097 11.0044C67.3067 10.8262 67.2314 10.6803 67.0839 10.5666C66.9364 10.4498 66.7091 10.3607 66.4018 10.2993L65.1759 10.055C64.4846 9.91674 63.9699 9.67709 63.632 9.33604C63.2971 8.99499 63.1296 8.56023 63.1296 8.03176C63.1296 7.57703 63.2525 7.18528 63.4983 6.85653C63.7472 6.52777 64.0959 6.27429 64.5445 6.09608C64.9962 5.91788 65.5246 5.82877 66.1299 5.82877C67.024 5.82877 67.7276 6.01773 68.2407 6.39565C68.7569 6.77357 69.058 7.28821 69.144 7.93958ZM72.505 3.56126V13H70.5416V3.56126H72.505ZM76.0963 13.1337C75.6447 13.1337 75.2422 13.0553 74.8889 12.8986C74.5355 12.7388 74.2559 12.5038 74.0501 12.1935C73.8473 11.8801 73.7459 11.4899 73.7459 11.0228C73.7459 10.6296 73.8181 10.2993 73.9625 10.032C74.1069 9.76465 74.3035 9.54958 74.5524 9.38673C74.8013 9.22389 75.084 9.10099 75.4004 9.01803C75.72 8.93508 76.0549 8.8767 76.4051 8.8429C76.8168 8.79989 77.1487 8.75994 77.4006 8.72307C77.6526 8.68313 77.8354 8.62475 77.9491 8.54794C78.0627 8.47113 78.1196 8.35744 78.1196 8.20689V8.17924C78.1196 7.88735 78.0274 7.66152 77.8431 7.50175C77.6618 7.34198 77.4037 7.2621 77.0688 7.2621C76.7155 7.2621 76.4343 7.34045 76.2254 7.49714C76.0165 7.65077 75.8782 7.84434 75.8106 8.07785L73.9948 7.93037C74.0869 7.50022 74.2682 7.12844 74.5386 6.81505C74.809 6.49858 75.1577 6.25585 75.5848 6.08686C76.0149 5.9148 76.5127 5.82877 77.078 5.82877C77.4713 5.82877 77.8477 5.87486 78.2072 5.96704C78.5697 6.05921 78.8908 6.20208 79.1704 6.39565C79.4531 6.58922 79.6758 6.83809 79.8387 7.14227C80.0015 7.44337 80.0829 7.80439 80.0829 8.22533V13H78.221V12.0183H78.1657C78.052 12.2396 77.8999 12.4347 77.7094 12.6036C77.5189 12.7696 77.29 12.9001 77.0227 12.9954C76.7554 13.0876 76.4466 13.1337 76.0963 13.1337ZM76.6586 11.7787C76.9474 11.7787 77.2024 11.7218 77.4237 11.6082C77.6449 11.4914 77.8185 11.3347 77.9445 11.1381C78.0704 10.9414 78.1334 10.7187 78.1334 10.4698V9.71856C78.072 9.75851 77.9875 9.79538 77.8799 9.82917C77.7755 9.8599 77.6572 9.88909 77.5251 9.91674C77.3929 9.94132 77.2608 9.96436 77.1287 9.98587C76.9966 10.0043 76.8768 10.0212 76.7692 10.0366C76.5388 10.0704 76.3375 10.1241 76.1655 10.1979C75.9934 10.2716 75.8598 10.3715 75.7645 10.4974C75.6693 10.6203 75.6216 10.774 75.6216 10.9583C75.6216 11.2256 75.7184 11.4299 75.912 11.5713C76.1086 11.7095 76.3575 11.7787 76.6586 11.7787ZM83.5694 8.90742V13H81.6061V5.92095H83.4773V7.16992H83.5602C83.7169 6.75821 83.9796 6.43252 84.3483 6.19286C84.717 5.95014 85.1641 5.82877 85.6895 5.82877C86.1811 5.82877 86.6097 5.93631 86.9753 6.15139C87.3409 6.36646 87.6252 6.67371 87.8279 7.07314C88.0307 7.46949 88.1321 7.94266 88.1321 8.49263V13H86.1688V8.8429C86.1719 8.40968 86.0612 8.0717 85.837 7.82897C85.6127 7.58317 85.3039 7.46027 84.9106 7.46027C84.6464 7.46027 84.4128 7.51711 84.2101 7.6308C84.0103 7.74448 83.8537 7.9104 83.74 8.12854C83.6294 8.34362 83.5725 8.60325 83.5694 8.90742ZM92.2881 13.1152C91.7504 13.1152 91.2634 12.977 90.8271 12.7004C90.3939 12.4208 90.0497 12.0107 89.7947 11.4699C89.5428 10.9261 89.4168 10.2593 89.4168 9.46969C89.4168 8.65855 89.5474 7.98414 89.8086 7.44645C90.0697 6.90569 90.4169 6.50165 90.8501 6.23434C91.2864 5.96396 91.7642 5.82877 92.2835 5.82877C92.6798 5.82877 93.0101 5.89637 93.2743 6.03156C93.5416 6.16368 93.7567 6.32959 93.9196 6.5293C94.0855 6.72594 94.2115 6.91951 94.2975 7.11001H94.3574V3.56126H96.3161V13H94.3804V11.8662H94.2975C94.2053 12.0629 94.0747 12.258 93.9057 12.4516C93.7398 12.6421 93.5232 12.8003 93.2559 12.9263C92.9917 13.0522 92.6691 13.1152 92.2881 13.1152ZM92.9102 11.5529C93.2267 11.5529 93.494 11.4668 93.7122 11.2948C93.9334 11.1196 94.1024 10.8754 94.2191 10.562C94.339 10.2486 94.3989 9.88141 94.3989 9.46047C94.3989 9.03954 94.3405 8.67391 94.2237 8.36359C94.107 8.05327 93.938 7.81361 93.7168 7.64462C93.4956 7.47564 93.2267 7.39114 92.9102 7.39114C92.5876 7.39114 92.3157 7.47871 92.0945 7.65384C91.8733 7.82897 91.7058 8.0717 91.5921 8.38202C91.4785 8.69235 91.4216 9.05183 91.4216 9.46047C91.4216 9.87219 91.4785 10.2363 91.5921 10.5527C91.7089 10.8661 91.8763 11.1119 92.0945 11.2902C92.3157 11.4653 92.5876 11.5529 92.9102 11.5529ZM103.82 7.93958L102.023 8.05019C101.992 7.89657 101.926 7.75831 101.825 7.63541C101.723 7.50943 101.59 7.40958 101.424 7.33584C101.261 7.25902 101.066 7.22062 100.838 7.22062C100.534 7.22062 100.278 7.28514 100.069 7.41419C99.8599 7.54016 99.7554 7.70915 99.7554 7.92115C99.7554 8.09014 99.823 8.23301 99.9582 8.34976C100.093 8.46652 100.325 8.56023 100.654 8.6309L101.935 8.88899C102.624 9.03032 103.137 9.25769 103.475 9.57108C103.813 9.88448 103.982 10.2962 103.982 10.8062C103.982 11.2702 103.845 11.6773 103.571 12.0276C103.301 12.3778 102.929 12.6513 102.456 12.8479C101.986 13.0415 101.444 13.1383 100.829 13.1383C99.8921 13.1383 99.1455 12.9432 98.5894 12.553C98.0363 12.1597 97.7122 11.6251 97.6169 10.9491L99.548 10.8477C99.6064 11.1335 99.7477 11.3516 99.972 11.5022C100.196 11.6496 100.484 11.7234 100.834 11.7234C101.178 11.7234 101.454 11.6573 101.663 11.5252C101.875 11.39 101.983 11.2164 101.986 11.0044C101.983 10.8262 101.908 10.6803 101.76 10.5666C101.613 10.4498 101.385 10.3607 101.078 10.2993L99.8522 10.055C99.1609 9.91674 98.6462 9.67709 98.3082 9.33604C97.9733 8.99499 97.8059 8.56023 97.8059 8.03176C97.8059 7.57703 97.9288 7.18528 98.1746 6.85653C98.4235 6.52777 98.7722 6.27429 99.2208 6.09608C99.6724 5.91788 100.201 5.82877 100.806 5.82877C101.7 5.82877 102.404 6.01773 102.917 6.39565C103.433 6.77357 103.734 7.28821 103.82 7.93958Z" fill="#5B00B7"/>
<path d="M159.616 12.7315H155.578C155.505 12.2092 155.354 11.7452 155.127 11.3396C154.899 10.9279 154.607 10.5777 154.251 10.2888C153.895 10 153.483 9.77881 153.016 9.62518C152.555 9.47156 152.054 9.39475 151.513 9.39475C150.536 9.39475 149.685 9.63748 148.96 10.1229C148.235 10.6022 147.673 11.3028 147.273 12.2245C146.874 13.1401 146.674 14.2524 146.674 15.5613C146.674 16.907 146.874 18.0377 147.273 18.9533C147.679 19.8689 148.244 20.5602 148.969 21.0273C149.694 21.4943 150.533 21.7278 151.486 21.7278C152.02 21.7278 152.515 21.6571 152.97 21.5158C153.431 21.3744 153.839 21.1686 154.196 20.8982C154.552 20.6217 154.847 20.2868 155.081 19.8935C155.32 19.5002 155.486 19.0516 155.578 18.5477L159.616 18.5662C159.511 19.4326 159.25 20.2683 158.832 21.0733C158.42 21.8722 157.864 22.5881 157.164 23.221C156.469 23.8478 155.64 24.3456 154.675 24.7143C153.716 25.0768 152.632 25.2581 151.421 25.2581C149.738 25.2581 148.232 24.8771 146.905 24.1151C145.583 23.3531 144.539 22.2501 143.771 20.806C143.009 19.362 142.628 17.6137 142.628 15.5613C142.628 13.5027 143.015 11.7514 143.789 10.3073C144.563 8.8632 145.614 7.76325 146.942 7.00741C148.269 6.24543 149.762 5.86444 151.421 5.86444C152.515 5.86444 153.529 6.01806 154.463 6.32531C155.403 6.63256 156.236 7.08115 156.961 7.67107C157.686 8.25485 158.276 8.97074 158.731 9.81875C159.192 10.6668 159.487 11.6377 159.616 12.7315ZM166.441 25.2673C165.538 25.2673 164.733 25.1106 164.026 24.7972C163.32 24.4777 162.76 24.0076 162.349 23.3869C161.943 22.7601 161.74 21.9797 161.74 21.0457C161.74 20.2591 161.885 19.5985 162.173 19.0639C162.462 18.5293 162.856 18.0992 163.353 17.7735C163.851 17.4478 164.416 17.202 165.049 17.0361C165.688 16.8702 166.358 16.7534 167.059 16.6858C167.882 16.5998 168.546 16.5199 169.05 16.4461C169.554 16.3663 169.919 16.2495 170.147 16.0959C170.374 15.9423 170.488 15.7149 170.488 15.4138V15.3585C170.488 14.7747 170.303 14.323 169.935 14.0035C169.572 13.684 169.056 13.5242 168.386 13.5242C167.679 13.5242 167.117 13.6809 166.699 13.9943C166.281 14.3015 166.005 14.6887 165.87 15.1557L162.238 14.8607C162.422 14.0004 162.785 13.2569 163.326 12.6301C163.866 11.9972 164.564 11.5117 165.418 11.1737C166.278 10.8296 167.274 10.6575 168.405 10.6575C169.191 10.6575 169.944 10.7497 170.663 10.9341C171.388 11.1184 172.03 11.4042 172.589 11.7913C173.155 12.1784 173.6 12.6762 173.926 13.2845C174.251 13.8867 174.414 14.6088 174.414 15.4507V25H170.69V23.0367H170.58C170.352 23.4791 170.048 23.8693 169.667 24.2073C169.286 24.5391 168.829 24.8003 168.294 24.9908C167.759 25.1751 167.142 25.2673 166.441 25.2673ZM167.566 22.5574C168.143 22.5574 168.653 22.4437 169.096 22.2163C169.538 21.9828 169.885 21.6694 170.137 21.2761C170.389 20.8828 170.515 20.4373 170.515 19.9396V18.4371C170.392 18.517 170.223 18.5908 170.008 18.6583C169.799 18.7198 169.563 18.7782 169.299 18.8335C169.034 18.8826 168.77 18.9287 168.506 18.9717C168.242 19.0086 168.002 19.0424 167.787 19.0731C167.326 19.1407 166.924 19.2483 166.579 19.3958C166.235 19.5432 165.968 19.7429 165.778 19.9949C165.587 20.2407 165.492 20.5479 165.492 20.9166C165.492 21.4513 165.685 21.8599 166.072 22.1426C166.466 22.4191 166.964 22.5574 167.566 22.5574ZM181.387 6.12253V25H177.461V6.12253H181.387ZM190.93 25.2765C189.48 25.2765 188.232 24.9693 187.188 24.3548C186.149 23.7341 185.35 22.8738 184.791 21.7739C184.238 20.6739 183.961 19.408 183.961 17.9763C183.961 16.526 184.241 15.254 184.8 14.1602C185.366 13.0602 186.167 12.203 187.206 11.5885C188.244 10.9679 189.48 10.6575 190.911 10.6575C192.147 10.6575 193.228 10.8818 194.156 11.3304C195.084 11.779 195.818 12.4089 196.359 13.22C196.9 14.0312 197.198 14.9836 197.253 16.0774H193.548C193.443 15.3708 193.167 14.8024 192.718 14.3722C192.276 13.9359 191.695 13.7178 190.976 13.7178C190.368 13.7178 189.836 13.8837 189.381 14.2155C188.933 14.5412 188.582 15.0174 188.33 15.6442C188.079 16.271 187.953 17.0299 187.953 17.9209C187.953 18.8243 188.075 19.5924 188.321 20.2253C188.573 20.8583 188.927 21.3406 189.381 21.6725C189.836 22.0043 190.368 22.1702 190.976 22.1702C191.424 22.1702 191.827 22.078 192.183 21.8937C192.546 21.7093 192.844 21.442 193.077 21.0918C193.317 20.7354 193.474 20.3083 193.548 19.8105H197.253C197.192 20.8921 196.897 21.8445 196.368 22.668C195.846 23.4853 195.124 24.1243 194.202 24.5852C193.28 25.0461 192.19 25.2765 190.93 25.2765Z" fill="#5B00B7"/>
</svg>
