<svg width="162" height="29" viewBox="0 0 162 29" fill="none" xmlns="http://www.w3.org/2000/svg">
<path d="M104.955 0.736035V25.9388H101.932V0.736035H104.955Z" fill="white"/>
<path d="M32.2933 17.5562V25.2188H31.3654V17.5562H32.2933ZM34.917 21.7616V25.2188H34.034V19.4718H34.8871V20.3698H34.9619C35.0966 20.0779 35.3011 19.8435 35.5755 19.6664C35.8499 19.4868 36.2041 19.397 36.6381 19.397C37.0272 19.397 37.3677 19.4768 37.6595 19.6364C37.9514 19.7936 38.1784 20.033 38.3405 20.3548C38.5026 20.6741 38.5837 21.0782 38.5837 21.567V25.2188H37.7007V21.6269C37.7007 21.1754 37.5835 20.8237 37.349 20.5718C37.1145 20.3174 36.7927 20.1902 36.3837 20.1902C36.1018 20.1902 35.8499 20.2513 35.6279 20.3735C35.4084 20.4957 35.235 20.6741 35.1078 20.9085C34.9806 21.143 34.917 21.4274 34.917 21.7616ZM42.5319 25.3385C41.9931 25.3385 41.5292 25.2113 41.1401 24.9568C40.7509 24.7024 40.4516 24.352 40.2421 23.9055C40.0326 23.459 39.9278 22.9489 39.9278 22.3752C39.9278 21.7915 40.0351 21.2765 40.2496 20.83C40.4666 20.381 40.7684 20.0305 41.155 19.7786C41.5441 19.5242 41.9981 19.397 42.5169 19.397C42.921 19.397 43.2852 19.4718 43.6095 19.6215C43.9337 19.7711 44.1994 19.9806 44.4064 20.25C44.6134 20.5194 44.7419 20.8337 44.7918 21.1929H43.9088C43.8414 20.931 43.6918 20.699 43.4598 20.497C43.2303 20.2924 42.921 20.1902 42.5319 20.1902C42.1877 20.1902 41.8859 20.28 41.6265 20.4596C41.3695 20.6367 41.1687 20.8873 41.0241 21.2116C40.8819 21.5334 40.8108 21.9113 40.8108 22.3453C40.8108 22.7893 40.8807 23.1759 41.0203 23.5051C41.1625 23.8344 41.3621 24.0901 41.619 24.2722C41.8784 24.4542 42.1827 24.5453 42.5319 24.5453C42.7614 24.5453 42.9697 24.5054 43.1567 24.4256C43.3438 24.3457 43.5022 24.231 43.6319 24.0813C43.7616 23.9317 43.8539 23.7521 43.9088 23.5426H44.7918C44.7419 23.8818 44.6184 24.1873 44.4214 24.4592C44.2268 24.7286 43.9686 24.9431 43.6469 25.1028C43.3276 25.2599 42.9559 25.3385 42.5319 25.3385ZM48.4173 25.3385C47.8985 25.3385 47.4432 25.215 47.0516 24.9681C46.6625 24.7211 46.3582 24.3757 46.1387 23.9317C45.9217 23.4877 45.8132 22.9689 45.8132 22.3752C45.8132 21.7766 45.9217 21.254 46.1387 20.8075C46.3582 20.361 46.6625 20.0143 47.0516 19.7674C47.4432 19.5204 47.8985 19.397 48.4173 19.397C48.9361 19.397 49.3901 19.5204 49.7792 19.7674C50.1708 20.0143 50.4751 20.361 50.6921 20.8075C50.9116 21.254 51.0214 21.7766 51.0214 22.3752C51.0214 22.9689 50.9116 23.4877 50.6921 23.9317C50.4751 24.3757 50.1708 24.7211 49.7792 24.9681C49.3901 25.215 48.9361 25.3385 48.4173 25.3385ZM48.4173 24.5453C48.8114 24.5453 49.1356 24.4443 49.3901 24.2422C49.6445 24.0402 49.8328 23.7745 49.955 23.4453C50.0773 23.116 50.1384 22.7593 50.1384 22.3752C50.1384 21.9911 50.0773 21.6331 49.955 21.3014C49.8328 20.9697 49.6445 20.7015 49.3901 20.497C49.1356 20.2924 48.8114 20.1902 48.4173 20.1902C48.0232 20.1902 47.6989 20.2924 47.4445 20.497C47.1901 20.7015 47.0017 20.9697 46.8795 21.3014C46.7573 21.6331 46.6962 21.9911 46.6962 22.3752C46.6962 22.7593 46.7573 23.116 46.8795 23.4453C47.0017 23.7745 47.1901 24.0402 47.4445 24.2422C47.6989 24.4443 48.0232 24.5453 48.4173 24.5453ZM52.3692 25.2188V19.4718H53.2223V20.3698H53.2971C53.4169 20.063 53.6102 19.8248 53.8771 19.6551C54.144 19.483 54.4645 19.397 54.8386 19.397C55.2178 19.397 55.5333 19.483 55.7852 19.6551C56.0396 19.8248 56.2379 20.063 56.3801 20.3698H56.44C56.5872 20.0729 56.8079 19.8372 57.1022 19.6626C57.3966 19.4855 57.7495 19.397 58.1611 19.397C58.6749 19.397 59.0952 19.5579 59.422 19.8796C59.7487 20.1989 59.9121 20.6965 59.9121 21.3725V25.2188H59.0291V21.3725C59.0291 20.9485 58.9131 20.6454 58.6811 20.4633C58.4492 20.2812 58.176 20.1902 57.8618 20.1902C57.4577 20.1902 57.1446 20.3124 56.9226 20.5568C56.7006 20.7988 56.5896 21.1056 56.5896 21.4772V25.2188H55.6917V21.2827C55.6917 20.9559 55.5857 20.6928 55.3737 20.4932C55.1616 20.2912 54.8885 20.1902 54.5543 20.1902C54.3248 20.1902 54.1103 20.2513 53.9107 20.3735C53.7137 20.4957 53.554 20.6653 53.4318 20.8824C53.3121 21.0969 53.2522 21.3451 53.2522 21.6269V25.2188H52.3692ZM63.9361 25.3385C63.3823 25.3385 62.9047 25.2163 62.5031 24.9718C62.104 24.7249 61.7959 24.3807 61.5789 23.9392C61.3644 23.4952 61.2572 22.9788 61.2572 22.3902C61.2572 21.8015 61.3644 21.2827 61.5789 20.8337C61.7959 20.3822 62.0978 20.0305 62.4844 19.7786C62.8735 19.5242 63.3275 19.397 63.8463 19.397C64.1456 19.397 64.4412 19.4469 64.733 19.5466C65.0249 19.6464 65.2905 19.8085 65.53 20.033C65.7694 20.255 65.9602 20.5494 66.1024 20.916C66.2446 21.2827 66.3157 21.7342 66.3157 22.2704V22.6446H61.8857V21.8813H65.4177C65.4177 21.5571 65.3529 21.2677 65.2232 21.0133C65.096 20.7589 64.9139 20.5581 64.6769 20.4109C64.4424 20.2638 64.1656 20.1902 63.8463 20.1902C63.4946 20.1902 63.1903 20.2775 62.9334 20.4521C62.6789 20.6242 62.4831 20.8487 62.3459 21.1255C62.2088 21.4024 62.1402 21.6992 62.1402 22.016V22.5249C62.1402 22.9589 62.215 23.3268 62.3647 23.6286C62.5168 23.9279 62.7276 24.1562 62.997 24.3133C63.2664 24.468 63.5794 24.5453 63.9361 24.5453C64.1681 24.5453 64.3776 24.5129 64.5647 24.448C64.7542 24.3807 64.9176 24.2809 65.0548 24.1487C65.192 24.014 65.298 23.8469 65.3728 23.6473L66.2259 23.8868C66.1361 24.1761 65.9852 24.4305 65.7732 24.65C65.5611 24.867 65.2992 25.0367 64.9874 25.1589C64.6757 25.2786 64.3252 25.3385 63.9361 25.3385ZM70.3228 18.3793V17.5562H76.0698V18.3793H73.6602V25.2188H72.7324V18.3793H70.3228ZM78.2913 25.3534C77.9271 25.3534 77.5966 25.2848 77.2998 25.1477C77.003 25.008 76.7672 24.8072 76.5926 24.5453C76.418 24.2809 76.3307 23.9616 76.3307 23.5875C76.3307 23.2582 76.3956 22.9913 76.5253 22.7868C76.655 22.5797 76.8284 22.4176 77.0454 22.3004C77.2624 22.1831 77.5018 22.0958 77.7637 22.0385C78.0281 21.9786 78.2938 21.9312 78.5607 21.8963C78.9099 21.8514 79.193 21.8177 79.41 21.7953C79.6295 21.7703 79.7891 21.7292 79.8889 21.6718C79.9912 21.6144 80.0423 21.5147 80.0423 21.3725V21.3426C80.0423 20.9734 79.9413 20.6865 79.7392 20.482C79.5397 20.2775 79.2366 20.1752 78.8301 20.1752C78.4085 20.1752 78.078 20.2675 77.8386 20.4521C77.5991 20.6367 77.4307 20.8337 77.3335 21.0432L76.4954 20.7439C76.645 20.3947 76.8446 20.1228 77.094 19.9283C77.3459 19.7312 77.6203 19.594 77.9171 19.5167C78.2165 19.4369 78.5108 19.397 78.8001 19.397C78.9847 19.397 79.1967 19.4194 79.4362 19.4643C79.6781 19.5067 79.9114 19.5953 80.1358 19.73C80.3628 19.8647 80.5511 20.068 80.7008 20.3398C80.8505 20.6117 80.9253 20.9759 80.9253 21.4324V25.2188H80.0423V24.4405H79.9974C79.9375 24.5652 79.8378 24.6987 79.6981 24.8409C79.5584 24.983 79.3726 25.104 79.1406 25.2038C78.9086 25.3036 78.6255 25.3534 78.2913 25.3534ZM78.426 24.5602C78.7752 24.5602 79.0695 24.4917 79.309 24.3545C79.5509 24.2173 79.733 24.0402 79.8552 23.8232C79.9799 23.6062 80.0423 23.3779 80.0423 23.1385V22.3303C80.0049 22.3752 79.9226 22.4164 79.7954 22.4538C79.6707 22.4887 79.526 22.5199 79.3614 22.5473C79.1992 22.5723 79.0408 22.5947 78.8862 22.6147C78.734 22.6321 78.6106 22.6471 78.5158 22.6596C78.2863 22.6895 78.0718 22.7381 77.8722 22.8055C77.6752 22.8703 77.5155 22.9689 77.3933 23.1011C77.2736 23.2308 77.2137 23.4079 77.2137 23.6324C77.2137 23.9392 77.3272 24.1711 77.5542 24.3283C77.7837 24.4829 78.0743 24.5602 78.426 24.5602ZM83.1955 19.4718L84.5723 21.8215L85.9492 19.4718H86.9669L85.1111 22.3453L86.9669 25.2188H85.9492L84.5723 22.9888L83.1955 25.2188H82.1778L84.0036 22.3453L82.1778 19.4718H83.1955Z" fill="white"/>
<path d="M4.82279 4.54115C4.79286 4.23934 4.6644 4.00487 4.43742 3.83775C4.21043 3.67063 3.90238 3.58707 3.51327 3.58707C3.24887 3.58707 3.02563 3.62448 2.84354 3.69931C2.66145 3.77165 2.52177 3.87267 2.42449 4.00238C2.32971 4.13208 2.28232 4.27925 2.28232 4.44387C2.27733 4.58106 2.30601 4.70079 2.36837 4.80306C2.43322 4.90532 2.52177 4.99387 2.63402 5.0687C2.74626 5.14104 2.87597 5.20464 3.02313 5.25952C3.1703 5.3119 3.32744 5.3568 3.49456 5.39421L4.183 5.55884C4.51724 5.63367 4.82404 5.73344 5.10341 5.85816C5.38277 5.98288 5.62472 6.13628 5.82926 6.31836C6.03379 6.50045 6.19218 6.71496 6.30443 6.9619C6.41917 7.20884 6.47778 7.49195 6.48028 7.81122C6.47778 8.28016 6.35806 8.68673 6.12109 9.03095C5.88663 9.37268 5.5474 9.63832 5.10341 9.82789C4.66191 10.015 4.12937 10.1085 3.50579 10.1085C2.88719 10.1085 2.34841 10.0137 1.88946 9.82415C1.43299 9.63458 1.0763 9.35397 0.819389 8.98231C0.564967 8.60816 0.43152 8.14546 0.419048 7.59422H1.98674C2.0042 7.85113 2.07778 8.06564 2.20749 8.23775C2.33968 8.40737 2.51554 8.53583 2.73504 8.62313C2.95703 8.70794 3.20771 8.75034 3.48708 8.75034C3.76145 8.75034 3.99966 8.71043 4.2017 8.63061C4.40624 8.55079 4.56463 8.43979 4.67688 8.29762C4.78912 8.15544 4.84524 7.99206 4.84524 7.80748C4.84524 7.63537 4.79411 7.4907 4.69184 7.37347C4.59207 7.25623 4.4449 7.15646 4.25034 7.07415C4.05828 6.99183 3.82257 6.917 3.5432 6.84966L2.70885 6.64013C2.06281 6.48299 1.55272 6.2373 1.17857 5.90306C0.804423 5.56882 0.618595 5.11859 0.621089 4.55238C0.618595 4.08843 0.742064 3.6831 0.991498 3.33639C1.24343 2.98968 1.58889 2.71904 2.02789 2.52448C2.4669 2.32992 2.96576 2.23265 3.52449 2.23265C4.0932 2.23265 4.58957 2.32992 5.01361 2.52448C5.44014 2.71904 5.77189 2.98968 6.00885 3.33639C6.24581 3.6831 6.36803 4.08469 6.37552 4.54115H4.82279ZM10.1367 10.1122C9.55548 10.1122 9.05287 9.98878 8.62883 9.74184C8.20729 9.4924 7.88178 9.14569 7.6523 8.7017C7.42282 8.25521 7.30809 7.73764 7.30809 7.14898C7.30809 6.55533 7.42282 6.0365 7.6523 5.59251C7.88178 5.14603 8.20729 4.79931 8.62883 4.55238C9.05287 4.30294 9.55548 4.17823 10.1367 4.17823C10.7178 4.17823 11.2192 4.30294 11.6407 4.55238C12.0648 4.79931 12.3915 5.14603 12.621 5.59251C12.8505 6.0365 12.9652 6.55533 12.9652 7.14898C12.9652 7.73764 12.8505 8.25521 12.621 8.7017C12.3915 9.14569 12.0648 9.4924 11.6407 9.74184C11.2192 9.98878 10.7178 10.1122 10.1367 10.1122ZM10.1441 8.87755C10.4085 8.87755 10.6293 8.80272 10.8064 8.65306C10.9835 8.50091 11.1169 8.29388 11.2067 8.03197C11.299 7.77007 11.3452 7.47199 11.3452 7.13775C11.3452 6.80351 11.299 6.50544 11.2067 6.24353C11.1169 5.98163 10.9835 5.7746 10.8064 5.62244C10.6293 5.47029 10.4085 5.39421 10.1441 5.39421C9.87725 5.39421 9.65276 5.47029 9.47067 5.62244C9.29108 5.7746 9.15514 5.98163 9.06285 6.24353C8.97305 6.50544 8.92815 6.80351 8.92815 7.13775C8.92815 7.47199 8.97305 7.77007 9.06285 8.03197C9.15514 8.29388 9.29108 8.50091 9.47067 8.65306C9.65276 8.80272 9.87725 8.87755 10.1441 8.87755ZM15.5955 2.33741V10H14.0016V2.33741H15.5955ZM19.4689 10.1122C18.8877 10.1122 18.3851 9.98878 17.9611 9.74184C17.5395 9.4924 17.214 9.14569 16.9845 8.7017C16.7551 8.25521 16.6403 7.73764 16.6403 7.14898C16.6403 6.55533 16.7551 6.0365 16.9845 5.59251C17.214 5.14603 17.5395 4.79931 17.9611 4.55238C18.3851 4.30294 18.8877 4.17823 19.4689 4.17823C20.0501 4.17823 20.5514 4.30294 20.973 4.55238C21.397 4.79931 21.7238 5.14603 21.9533 5.59251C22.1827 6.0365 22.2975 6.55533 22.2975 7.14898C22.2975 7.73764 22.1827 8.25521 21.9533 8.7017C21.7238 9.14569 21.397 9.4924 20.973 9.74184C20.5514 9.98878 20.0501 10.1122 19.4689 10.1122ZM19.4764 8.87755C19.7408 8.87755 19.9615 8.80272 20.1386 8.65306C20.3157 8.50091 20.4492 8.29388 20.539 8.03197C20.6313 7.77007 20.6774 7.47199 20.6774 7.13775C20.6774 6.80351 20.6313 6.50544 20.539 6.24353C20.4492 5.98163 20.3157 5.7746 20.1386 5.62244C19.9615 5.47029 19.7408 5.39421 19.4764 5.39421C19.2095 5.39421 18.985 5.47029 18.8029 5.62244C18.6233 5.7746 18.4874 5.98163 18.3951 6.24353C18.3053 6.50544 18.2604 6.80351 18.2604 7.13775C18.2604 7.47199 18.3053 7.77007 18.3951 8.03197C18.4874 8.29388 18.6233 8.50091 18.8029 8.65306C18.985 8.80272 19.2095 8.87755 19.4764 8.87755ZM23.3339 10V4.25306H24.8529V5.267H24.9203C25.04 4.93027 25.2395 4.66462 25.5189 4.47006C25.7983 4.2755 26.1325 4.17823 26.5216 4.17823C26.9157 4.17823 27.2512 4.27675 27.5281 4.4738C27.805 4.66836 27.9895 4.93276 28.0818 5.267H28.1417C28.2589 4.93775 28.4709 4.6746 28.7777 4.47755C29.087 4.278 29.4525 4.17823 29.874 4.17823C30.4103 4.17823 30.8456 4.34909 31.1798 4.69081C31.5165 5.03004 31.6849 5.51145 31.6849 6.13503V10H30.0948V6.44932C30.0948 6.13004 30.0099 5.89059 29.8403 5.73095C29.6707 5.57131 29.4587 5.49149 29.2043 5.49149C28.9149 5.49149 28.6892 5.58378 28.5271 5.76836C28.3649 5.95045 28.2839 6.19115 28.2839 6.49047V10H26.7386V6.41564C26.7386 6.13378 26.6576 5.90929 26.4954 5.74217C26.3358 5.57505 26.125 5.49149 25.8631 5.49149C25.686 5.49149 25.5264 5.53639 25.3842 5.62619C25.2445 5.71349 25.1335 5.83696 25.0512 5.99659C24.9689 6.15374 24.9277 6.33832 24.9277 6.55034V10H23.3339ZM35.5405 10.1122C34.9593 10.1122 34.4567 9.98878 34.0327 9.74184C33.6111 9.4924 33.2856 9.14569 33.0562 8.7017C32.8267 8.25521 32.7119 7.73764 32.7119 7.14898C32.7119 6.55533 32.8267 6.0365 33.0562 5.59251C33.2856 5.14603 33.6111 4.79931 34.0327 4.55238C34.4567 4.30294 34.9593 4.17823 35.5405 4.17823C36.1217 4.17823 36.6231 4.30294 37.0446 4.55238C37.4686 4.79931 37.7954 5.14603 38.0249 5.59251C38.2543 6.0365 38.3691 6.55533 38.3691 7.14898C38.3691 7.73764 38.2543 8.25521 38.0249 8.7017C37.7954 9.14569 37.4686 9.4924 37.0446 9.74184C36.6231 9.98878 36.1217 10.1122 35.5405 10.1122ZM35.548 8.87755C35.8124 8.87755 36.0331 8.80272 36.2102 8.65306C36.3873 8.50091 36.5208 8.29388 36.6106 8.03197C36.7029 7.77007 36.749 7.47199 36.749 7.13775C36.749 6.80351 36.7029 6.50544 36.6106 6.24353C36.5208 5.98163 36.3873 5.7746 36.2102 5.62244C36.0331 5.47029 35.8124 5.39421 35.548 5.39421C35.2811 5.39421 35.0566 5.47029 34.8745 5.62244C34.6949 5.7746 34.559 5.98163 34.4667 6.24353C34.3769 6.50544 34.332 6.80351 34.332 7.13775C34.332 7.47199 34.3769 7.77007 34.4667 8.03197C34.559 8.29388 34.6949 8.50091 34.8745 8.65306C35.0566 8.80272 35.2811 8.87755 35.548 8.87755ZM40.9994 6.67755V10H39.4055V4.25306H40.9245V5.267H40.9919C41.1191 4.93276 41.3324 4.66836 41.6317 4.4738C41.931 4.27675 42.2939 4.17823 42.7204 4.17823C43.1195 4.17823 43.4675 4.26553 43.7643 4.44013C44.0612 4.61473 44.2919 4.86417 44.4565 5.18843C44.6211 5.5102 44.7034 5.89433 44.7034 6.34081V10H43.1096V6.62517C43.1121 6.27347 43.0223 5.99909 42.8402 5.80204C42.6581 5.60249 42.4074 5.50272 42.0881 5.50272C41.8736 5.50272 41.6841 5.54886 41.5194 5.64115C41.3573 5.73344 41.2301 5.86814 41.1378 6.04523C41.048 6.21984 41.0019 6.43061 40.9994 6.67755ZM50.0482 2.33741V10H48.4281V2.33741H50.0482ZM56.1328 5.89183L54.6736 5.98163C54.6487 5.85691 54.595 5.74467 54.5127 5.64489C54.4304 5.54263 54.3219 5.46156 54.1872 5.4017C54.055 5.33934 53.8966 5.30816 53.712 5.30816C53.4651 5.30816 53.2568 5.36054 53.0872 5.4653C52.9176 5.56757 52.8328 5.70476 52.8328 5.87687C52.8328 6.01406 52.8877 6.13004 52.9974 6.22483C53.1072 6.31961 53.2955 6.39569 53.5624 6.45306L54.6025 6.66258C55.1612 6.77732 55.5778 6.9619 55.8522 7.21632C56.1266 7.47075 56.2637 7.80499 56.2637 8.21905C56.2637 8.59569 56.1527 8.92619 55.9308 9.21054C55.7112 9.4949 55.4094 9.71689 55.0253 9.87653C54.6437 10.0337 54.2034 10.1122 53.7046 10.1122C52.9438 10.1122 52.3377 9.95385 51.8862 9.63707C51.4372 9.3178 51.1741 8.88379 51.0967 8.33503L52.6644 8.25272C52.7118 8.48469 52.8266 8.66179 53.0086 8.78401C53.1907 8.90374 53.4239 8.9636 53.7083 8.9636C53.9877 8.9636 54.2122 8.90998 54.3818 8.80272C54.5539 8.69297 54.6412 8.55204 54.6437 8.37993C54.6412 8.23526 54.5801 8.11678 54.4603 8.02449C54.3406 7.9297 54.156 7.85737 53.9066 7.80748L52.9114 7.60918C52.3501 7.49694 51.9323 7.30238 51.658 7.02551C51.3861 6.74864 51.2501 6.39569 51.2501 5.96666C51.2501 5.5975 51.3499 5.27947 51.5495 5.01258C51.7515 4.74569 52.0346 4.5399 52.3988 4.39523C52.7654 4.25056 53.1945 4.17823 53.6859 4.17823C54.4117 4.17823 54.9829 4.33163 55.3995 4.63843C55.8185 4.94523 56.063 5.36303 56.1328 5.89183ZM58.8613 2.33741V10H57.2674V2.33741H58.8613ZM61.7768 10.1085C61.4102 10.1085 61.0834 10.0449 60.7966 9.91769C60.5097 9.78798 60.2827 9.59717 60.1156 9.34524C59.951 9.09082 59.8687 8.77404 59.8687 8.3949C59.8687 8.07562 59.9273 7.80748 60.0445 7.59047C60.1618 7.37347 60.3214 7.19886 60.5234 7.06666C60.7255 6.93446 60.955 6.83469 61.2119 6.76734C61.4713 6.7 61.7432 6.6526 62.0275 6.62517C62.3618 6.59025 62.6312 6.55782 62.8357 6.52789C63.0402 6.49546 63.1886 6.44807 63.2809 6.38571C63.3732 6.32335 63.4194 6.23106 63.4194 6.10884V6.08639C63.4194 5.84943 63.3445 5.6661 63.1949 5.53639C63.0477 5.40668 62.8382 5.34183 62.5663 5.34183C62.2795 5.34183 62.0512 5.40544 61.8816 5.53265C61.712 5.65737 61.5997 5.81451 61.5449 6.00408L60.0707 5.88435C60.1455 5.53514 60.2927 5.23333 60.5122 4.97891C60.7317 4.72199 61.0148 4.52494 61.3615 4.38775C61.7107 4.24807 62.1148 4.17823 62.5738 4.17823C62.8931 4.17823 63.1986 4.21564 63.4904 4.29047C63.7848 4.3653 64.0454 4.48129 64.2724 4.63843C64.5019 4.79557 64.6827 4.99761 64.8149 5.24455C64.9471 5.489 65.0132 5.78208 65.0132 6.12381V10H63.5017V9.20306H63.4568C63.3645 9.38265 63.241 9.54104 63.0864 9.67823C62.9317 9.81292 62.7459 9.91893 62.5289 9.99626C62.3119 10.0711 62.0612 10.1085 61.7768 10.1085ZM62.2333 9.0085C62.4678 9.0085 62.6748 8.96236 62.8544 8.87007C63.034 8.77528 63.1749 8.64807 63.2772 8.48843C63.3795 8.3288 63.4306 8.14796 63.4306 7.94592V7.33605C63.3807 7.36848 63.3121 7.39841 63.2248 7.42585C63.14 7.45079 63.044 7.47449 62.9367 7.49694C62.8295 7.51689 62.7222 7.5356 62.6149 7.55306C62.5077 7.56802 62.4104 7.58174 62.3231 7.59422C62.136 7.62165 61.9726 7.6653 61.833 7.72517C61.6933 7.78503 61.5848 7.8661 61.5075 7.96837C61.4301 8.06814 61.3915 8.19286 61.3915 8.34252C61.3915 8.55952 61.47 8.7254 61.6272 8.84013C61.7868 8.95238 61.9889 9.0085 62.2333 9.0085ZM67.8437 6.67755V10H66.2498V4.25306H67.7689V5.267H67.8362C67.9634 4.93276 68.1767 4.66836 68.476 4.4738C68.7753 4.27675 69.1382 4.17823 69.5648 4.17823C69.9639 4.17823 70.3118 4.26553 70.6087 4.44013C70.9055 4.61473 71.1362 4.86417 71.3008 5.18843C71.4655 5.5102 71.5478 5.89433 71.5478 6.34081V10H69.9539V6.62517C69.9564 6.27347 69.8666 5.99909 69.6845 5.80204C69.5024 5.60249 69.2517 5.50272 68.9325 5.50272C68.718 5.50272 68.5284 5.54886 68.3638 5.64115C68.2016 5.73344 68.0744 5.86814 67.9821 6.04523C67.8923 6.21984 67.8462 6.43061 67.8437 6.67755ZM74.9217 10.0935C74.4852 10.0935 74.0898 9.98129 73.7356 9.7568C73.3839 9.52982 73.1045 9.19682 72.8975 8.75782C72.693 8.31632 72.5907 7.77505 72.5907 7.13401C72.5907 6.47551 72.6967 5.928 72.9087 5.49149C73.1208 5.05249 73.4026 4.72448 73.7543 4.50748C74.1085 4.28798 74.4964 4.17823 74.9179 4.17823C75.2397 4.17823 75.5078 4.2331 75.7223 4.34285C75.9394 4.45011 76.114 4.5848 76.2462 4.74693C76.3809 4.90657 76.4831 5.06371 76.553 5.21836H76.6016V2.33741H78.1917V10H76.6203V9.07959H76.553C76.4781 9.23923 76.3721 9.39762 76.2349 9.55476C76.1002 9.70941 75.9244 9.83787 75.7074 9.94014C75.4929 10.0424 75.231 10.0935 74.9217 10.0935ZM75.4268 8.82517C75.6837 8.82517 75.9007 8.75533 76.0778 8.61564C76.2574 8.47347 76.3946 8.27517 76.4894 8.02075C76.5866 7.76632 76.6353 7.46825 76.6353 7.12653C76.6353 6.7848 76.5879 6.48798 76.4931 6.23605C76.3983 5.98412 76.2611 5.78957 76.0815 5.65238C75.9019 5.51519 75.6837 5.44659 75.4268 5.44659C75.1649 5.44659 74.9441 5.51768 74.7645 5.65986C74.5849 5.80204 74.449 5.99909 74.3567 6.25102C74.2644 6.50294 74.2183 6.79478 74.2183 7.12653C74.2183 7.46077 74.2644 7.75635 74.3567 8.01326C74.4515 8.26769 74.5874 8.46723 74.7645 8.6119C74.9441 8.75408 75.1649 8.82517 75.4268 8.82517ZM84.2838 5.89183L82.8246 5.98163C82.7997 5.85691 82.7461 5.74467 82.6638 5.64489C82.5815 5.54263 82.4729 5.46156 82.3383 5.4017C82.2061 5.33934 82.0477 5.30816 81.8631 5.30816C81.6161 5.30816 81.4079 5.36054 81.2383 5.4653C81.0686 5.56757 80.9838 5.70476 80.9838 5.87687C80.9838 6.01406 81.0387 6.13004 81.1485 6.22483C81.2582 6.31961 81.4465 6.39569 81.7134 6.45306L82.7536 6.66258C83.3123 6.77732 83.7288 6.9619 84.0032 7.21632C84.2776 7.47075 84.4148 7.80499 84.4148 8.21905C84.4148 8.59569 84.3038 8.92619 84.0818 9.21054C83.8623 9.4949 83.5605 9.71689 83.1764 9.87653C82.7947 10.0337 82.3545 10.1122 81.8556 10.1122C81.0948 10.1122 80.4887 9.95385 80.0372 9.63707C79.5883 9.3178 79.3251 8.88379 79.2478 8.33503L80.8155 8.25272C80.8629 8.48469 80.9776 8.66179 81.1597 8.78401C81.3418 8.90374 81.575 8.9636 81.8593 8.9636C82.1387 8.9636 82.3632 8.90998 82.5328 8.80272C82.7049 8.69297 82.7922 8.55204 82.7947 8.37993C82.7922 8.23526 82.7311 8.11678 82.6114 8.02449C82.4917 7.9297 82.3071 7.85737 82.0576 7.80748L81.0624 7.60918C80.5012 7.49694 80.0834 7.30238 79.809 7.02551C79.5371 6.74864 79.4012 6.39569 79.4012 5.96666C79.4012 5.5975 79.501 5.27947 79.7005 5.01258C79.9025 4.74569 80.1856 4.5399 80.5498 4.39523C80.9165 4.25056 81.3455 4.17823 81.8369 4.17823C82.5627 4.17823 83.1339 4.33163 83.5505 4.63843C83.9695 4.94523 84.214 5.36303 84.2838 5.89183Z" fill="white"/>
<path d="M129.58 11.0401H126.302C126.242 10.6161 126.12 10.2394 125.936 9.91019C125.751 9.57595 125.514 9.2916 125.225 9.05713C124.935 8.82266 124.601 8.64307 124.222 8.51836C123.848 8.39364 123.441 8.33128 123.002 8.33128C122.209 8.33128 121.518 8.52833 120.929 8.92244C120.341 9.31155 119.884 9.88026 119.56 10.6286C119.236 11.3719 119.074 12.2748 119.074 13.3374C119.074 14.4299 119.236 15.3478 119.56 16.0912C119.889 16.8345 120.348 17.3957 120.937 17.7748C121.526 18.154 122.207 18.3435 122.98 18.3435C123.414 18.3435 123.815 18.2862 124.185 18.1714C124.559 18.0567 124.89 17.8896 125.18 17.6701C125.469 17.4456 125.709 17.1737 125.898 16.8544C126.093 16.5351 126.227 16.171 126.302 15.7619L129.58 15.7769C129.495 16.4803 129.283 17.1587 128.944 17.8122C128.61 18.4608 128.158 19.0419 127.589 19.5558C127.026 20.0646 126.352 20.4687 125.569 20.768C124.791 21.0624 123.91 21.2095 122.927 21.2095C121.561 21.2095 120.338 20.9002 119.261 20.2816C118.188 19.663 117.34 18.7676 116.717 17.5952C116.098 16.4229 115.789 15.0036 115.789 13.3374C115.789 11.6662 116.103 10.2444 116.732 9.0721C117.36 7.89976 118.213 7.00679 119.291 6.39318C120.368 5.77459 121.581 5.46529 122.927 5.46529C123.815 5.46529 124.639 5.59001 125.397 5.83944C126.16 6.08887 126.836 6.45305 127.425 6.93196C128.013 7.40588 128.492 7.98706 128.861 8.6755C129.236 9.36393 129.475 10.1521 129.58 11.0401ZM135.121 21.217C134.388 21.217 133.734 21.0898 133.16 20.8354C132.587 20.576 132.133 20.1943 131.799 19.6905C131.469 19.1816 131.305 18.5481 131.305 17.7898C131.305 17.1512 131.422 16.615 131.656 16.1809C131.891 15.7469 132.21 15.3977 132.614 15.1333C133.018 14.8689 133.477 14.6694 133.991 14.5347C134.51 14.4 135.054 14.3052 135.622 14.2503C136.291 14.1805 136.83 14.1156 137.239 14.0558C137.648 13.9909 137.945 13.8961 138.129 13.7714C138.314 13.6467 138.406 13.4621 138.406 13.2177V13.1728C138.406 12.6989 138.256 12.3322 137.957 12.0728C137.663 11.8134 137.244 11.6837 136.7 11.6837C136.126 11.6837 135.67 11.8109 135.331 12.0653C134.991 12.3147 134.767 12.629 134.657 13.0082L131.709 12.7687C131.858 12.0703 132.153 11.4667 132.592 10.9578C133.031 10.444 133.597 10.0499 134.29 9.7755C134.989 9.49613 135.797 9.35645 136.715 9.35645C137.353 9.35645 137.965 9.43128 138.548 9.58094C139.137 9.7306 139.658 9.96257 140.112 10.2769C140.571 10.5911 140.933 10.9952 141.197 11.4891C141.462 11.978 141.594 12.5642 141.594 13.2476V21H138.571V19.4061H138.481C138.296 19.7653 138.049 20.0821 137.74 20.3565C137.431 20.6258 137.059 20.8379 136.625 20.9925C136.191 21.1422 135.69 21.217 135.121 21.217ZM136.034 19.017C136.503 19.017 136.917 18.9247 137.276 18.7401C137.635 18.5506 137.917 18.2961 138.122 17.9769C138.326 17.6576 138.428 17.2959 138.428 16.8918V15.6721C138.329 15.737 138.192 15.7968 138.017 15.8517C137.847 15.9016 137.655 15.949 137.441 15.9939C137.226 16.0338 137.012 16.0712 136.797 16.1061C136.583 16.136 136.388 16.1635 136.214 16.1884C135.839 16.2433 135.513 16.3306 135.233 16.4503C134.954 16.5701 134.737 16.7322 134.582 16.9367C134.428 17.1363 134.35 17.3857 134.35 17.685C134.35 18.119 134.507 18.4508 134.822 18.6803C135.141 18.9048 135.545 19.017 136.034 19.017ZM147.255 5.67482V21H144.067V5.67482H147.255ZM155.001 21.2245C153.824 21.2245 152.811 20.9751 151.963 20.4762C151.12 19.9723 150.472 19.2739 150.018 18.3809C149.569 17.488 149.344 16.4603 149.344 15.298C149.344 14.1206 149.571 13.088 150.025 12.2C150.484 11.307 151.135 10.6111 151.978 10.1122C152.821 9.60838 153.824 9.35645 154.986 9.35645C155.989 9.35645 156.867 9.53854 157.621 9.90271C158.374 10.2669 158.97 10.7782 159.409 11.4367C159.848 12.0952 160.09 12.8685 160.135 13.7565H157.127C157.042 13.1828 156.817 12.7213 156.453 12.3721C156.094 12.0179 155.623 11.8408 155.039 11.8408C154.545 11.8408 154.113 11.9755 153.744 12.2449C153.38 12.5093 153.096 12.8959 152.891 13.4048C152.687 13.9136 152.584 14.5297 152.584 15.2531C152.584 15.9864 152.684 16.61 152.884 17.1238C153.088 17.6376 153.375 18.0292 153.744 18.2986C154.113 18.568 154.545 18.7027 155.039 18.7027C155.403 18.7027 155.73 18.6279 156.019 18.4782C156.313 18.3286 156.555 18.1116 156.745 17.8272C156.94 17.5379 157.067 17.1912 157.127 16.7871H160.135C160.085 17.6651 159.845 18.4383 159.416 19.1068C158.992 19.7703 158.406 20.2891 157.658 20.6633C156.91 21.0374 156.024 21.2245 155.001 21.2245Z" fill="white"/>
</svg>
